HIERARCHY
ROOT hip
{
	OFFSET 0.000000 0.000000 0.000000
	CHANNELS 6 Xposition Yposition Zposition Xrotation Zrotation Yrotation 
	JOINT abdomen
	{
		OFFSET 0.000000 3.422050 0.000000
		CHANNELS 3 Xrotation Zrotation Yrotation 
		JOINT chest
		{
			OFFSET 0.000000 8.486693 -0.684411
			CHANNELS 3 Xrotation Zrotation Yrotation 
			JOINT neck
			{
				OFFSET 0.000000 10.266162 -0.273764
				CHANNELS 3 Xrotation Zrotation Yrotation 
				JOINT head
				{
					OFFSET 0.000000 3.148285 0.000000
					CHANNELS 3 Xrotation Zrotation Yrotation 
					End Site
					{
						OFFSET 0.000000 3.148289 0.000000
					}
				}
			}
			JOINT lCollar
			{
				OFFSET 3.422053 6.707223 -0.821293
				CHANNELS 3 Yrotation Zrotation Xrotation 
				JOINT lShldr
				{
					OFFSET 3.285171 0.000000 0.000000
					CHANNELS 3 Zrotation Yrotation Xrotation 
					JOINT lForeArm
					{
						OFFSET 10.129278 0.000000 0.000000
						CHANNELS 3 Yrotation Zrotation Xrotation 
						JOINT lHand
						{
							OFFSET 8.486692 0.000000 0.000000
							CHANNELS 3 Zrotation Yrotation Xrotation 
							End Site
							{
								OFFSET 4.106464 0.000000 0.000000
							}
						}
					}
				}
			}
			JOINT rCollar
			{
				OFFSET -3.558935 6.707223 -0.821293
				CHANNELS 3 Yrotation Zrotation Xrotation 
				JOINT rShldr
				{
					OFFSET -3.148289 0.000000 0.000000
					CHANNELS 3 Zrotation Yrotation Xrotation 
					JOINT rForeArm
					{
						OFFSET -10.266159 0.000000 0.000000
						CHANNELS 3 Yrotation Zrotation Xrotation 
						JOINT rHand
						{
							OFFSET -8.349810 0.000000 0.000000
							CHANNELS 3 Zrotation Yrotation Xrotation 
							End Site
							{
								OFFSET -4.106464 0.000000 0.000000
							}
						}
					}
				}
			}
		}
	}
	JOINT lThigh
	{
		OFFSET 5.338403 -1.642589 1.368821
		CHANNELS 3 Xrotation Zrotation Yrotation 
		JOINT lShin
		{
			OFFSET -2.053232 -20.121670 0.000000
			CHANNELS 3 Xrotation Zrotation Yrotation 
			JOINT lFoot
			{
				OFFSET 0.000000 -19.300380 -1.231939
				CHANNELS 3 Xrotation Yrotation Zrotation 
				End Site
				{
					OFFSET 0.000000 -2.463878 4.653993
				}
			}
		}
	}
	JOINT rThigh
	{
		OFFSET -5.338403 -1.642589 1.368821
		CHANNELS 3 Xrotation Zrotation Yrotation 
		JOINT rShin
		{
			OFFSET 2.053232 -20.121670 0.000000
			CHANNELS 3 Xrotation Zrotation Yrotation 
			JOINT rFoot
			{
				OFFSET 0.000000 -19.300380 -1.231939
				CHANNELS 3 Xrotation Yrotation Zrotation 
				End Site
				{
					OFFSET 0.000000 -2.463878 4.653993
				}
			}
		}
	}
}
MOTION
Frames: 11
Frame Time: 0.033264
0.000000 5.996777 27.997833 -94.004440 0.000000 0.000000 -3.565043 -0.061005 -0.050702 10.596223 -0.135641 -0.449842 7.957070 0.000000 0.000000 -13.991428 0.000000 0.000000 7.607240 -3.702847 -14.874243 39.656837 -71.894226 -41.727772 -46.003548 -4.498390 -31.815241 -9.607917 13.074854 -50.346027 -7.767360 3.748328 -14.833836 -39.655308 71.889381 -41.723763 46.014812 4.465389 -31.837263 9.581185 -12.967852 -50.386448 -87.852814 39.645500 31.701694 -3.767729 -6.398729 -9.306480 19.117031 -14.601372 11.946044 -87.862999 -39.659336 -31.702436 -3.753182 6.393968 9.303976 19.116936 14.597339 -11.948896 
0.000000 5.996777 27.997833 -94.004440 0.000000 0.000000 -3.765109 -0.061009 -0.050686 10.596223 -0.135641 -0.449842 8.915700 0.000000 0.000000 -12.981388 0.000000 0.000000 7.155291 -3.487199 -14.582922 39.656837 -71.894226 -41.727772 -45.198280 -4.461870 -31.754215 -9.876088 12.747365 -50.255783 -7.307141 3.529869 -14.545073 -39.655308 71.889381 -41.723763 45.208729 4.430646 -31.775229 9.850599 -12.646142 -50.293911 -87.618164 39.422585 31.800138 -4.293733 -6.669134 -9.240849 19.117031 -14.601372 11.946044 -87.627747 -39.435970 -31.800924 -4.279982 6.664434 9.238349 19.116936 14.597339 -11.948896 
0.000000 5.996777 27.997833 -94.004440 0.000000 0.000000 -3.965173 -0.061012 -0.050669 10.596223 -0.135641 -0.449842 9.874055 0.000000 0.000000 -11.971669 0.000000 0.000000 6.702397 -3.273877 -14.289999 39.656837 -71.894226 -41.727772 -44.393257 -4.424505 -31.693735 -10.144430 12.420314 -50.164097 -6.845981 3.313758 -14.254656 -39.655308 71.889381 -41.723763 44.402870 4.395045 -31.713692 10.120197 -12.324885 -50.199959 -87.384758 39.199356 31.897087 -4.820289 -6.938900 -9.172692 19.117031 -14.601372 11.946044 -87.393784 -39.212322 -31.897934 -4.807332 6.934258 9.170189 19.116936 14.597339 -11.948896 
0.000000 5.996777 27.997833 -94.004440 0.000000 0.000000 -4.165234 -0.061016 -0.050653 10.596223 -0.135641 -0.449842 10.832009 0.000000 0.000000 -10.962417 0.000000 0.000000 6.248585 -3.062909 -13.995509 39.656837 -71.894226 -41.727772 -43.588531 -4.386306 -31.633793 -10.412947 12.093709 -50.070957 -6.383901 3.100024 -13.962616 -39.655308 71.889381 -41.723763 43.597328 4.358596 -31.652685 10.389982 -12.004089 -50.104576 -87.152596 38.975842 31.992548 -5.347392 -7.207989 -9.102009 19.117031 -14.601372 11.946044 -87.161034 -38.988361 -31.993446 -5.335230 7.203405 9.099500 19.116936 14.597339 -11.948896 
0.000000 5.996777 27.997833 -94.004440 0.000000 0.000000 -4.365290 -0.061019 -0.050636 10.596223 -0.135641 -0.449842 11.789429 0.000000 0.000000 -9.953793 0.000000 0.000000 5.793876 -2.854324 -13.699472 39.656837 -71.894226 -41.727772 -42.784222 -4.347284 -31.574432 -10.681656 11.767582 -49.976395 -5.920928 2.888697 -13.668980 -39.655308 71.889381 -41.723763 42.792191 4.321311 -31.592232 10.659965 -11.683776 -50.007782 -86.921631 38.752037 32.086544 -5.875036 -7.476365 -9.028807 19.117031 -14.601372 11.946044 -86.929512 -38.764126 -32.087486 -5.863668 7.471838 9.026287 19.116936 14.597339 -11.948896 
0.000000 5.996777 27.997833 -94.004440 0.000000 0.000000 -4.565339 -0.061023 -0.050619 10.596223 -0.135641 -0.449842 12.746179 0.000000 0.000000 -8.945951 0.000000 0.000000 5.338296 -2.648150 -13.401921 39.656837 -71.894226 -41.727772 -41.980381 -4.307461 -31.515652 -10.950556 11.441938 -49.880386 -5.457088 2.679807 -13.373779 -39.655308 71.889381 -41.723763 41.987518 4.283199 -31.532337 10.930151 -11.363961 -49.909576 -86.691895 38.527962 32.179092 -6.403216 -7.743991 -8.953086 19.117031 -14.601372 11.946044 -86.699188 -38.539600 -32.180065 -6.392643 7.739518 8.950553 19.116936 14.597339 -11.948896 
0.000000 5.996777 27.997833 -94.004440 0.000000 0.000000 -4.765380 -0.061026 -0.050603 10.596223 -0.135641 -0.449842 13.702127 0.000000 0.000000 -7.939043 0.000000 0.000000 4.881869 -2.444412 -13.102880 39.656837 -71.894226 -41.727772 -41.177109 -4.266840 -31.457476 -11.219657 11.116796 -49.782948 -4.992403 2.473380 -13.077042 -39.655308 71.889381 -41.723763 41.183407 4.244277 -31.473021 11.200547 -11.044658 -49.809959 -86.463348 38.303619 32.270210 -6.931928 -8.010828 -8.874854 19.117031 -14.601374 11.946045 -86.470078 -38.314808 -32.271194 -6.922150 8.006409 8.872303 19.116936 14.597339 -11.948896 
0.000000 5.996777 27.997833 -94.004440 0.000000 0.000000 -4.965415 -0.061029 -0.050586 10.596223 -0.135641 -0.449842 14.657144 0.000000 0.000000 -6.933229 0.000000 0.000000 4.424622 -2.243139 -12.802382 39.656837 -71.894226 -41.727772 -40.374466 -4.225440 -31.399923 -11.488971 10.792179 -49.684086 -4.526904 2.269444 -12.778797 -39.655308 71.889381 -41.723763 40.379929 4.204558 -31.414305 11.471165 -10.725889 -49.708935 -86.235970 38.079002 32.359886 -7.461164 -8.276842 -8.794116 19.117031 -14.601372 11.946044 -86.242157 -38.089760 -32.360897 -7.452179 8.272473 8.791544 19.116936 14.597339 -11.948896 
0.000000 5.996777 27.997833 -94.004440 0.000000 0.000000 -5.165438 -0.061032 -0.050570 10.596223 -0.135641 -0.449842 15.611094 0.000000 0.000000 -5.928657 0.000000 0.000000 3.966581 -2.044354 -12.500453 39.656837 -71.894226 -41.727772 -39.572540 -4.183271 -31.343004 -11.758504 10.468099 -49.583805 -4.060614 2.068026 -12.479074 -39.655308 71.889381 -41.723763 39.577171 4.164052 -31.356207 11.742005 -10.407665 -49.606503 -86.009766 37.854137 32.448147 -7.990918 -8.541992 -8.710876 19.117031 -14.601372 11.946044 -86.015411 -37.864464 -32.449192 -7.982728 8.537674 8.708276 19.116936 14.597339 -11.948896 
0.000000 5.996777 27.997833 -94.004440 0.000000 0.000000 -5.365452 -0.061036 -0.050553 10.596223 -0.135641 -0.449842 16.563854 0.000000 0.000000 -4.925481 0.000000 0.000000 3.507774 -1.848086 -12.197127 39.656837 -71.894226 -41.727772 -38.771400 -4.140353 -31.286734 -12.028262 10.144573 -49.482113 -3.593565 1.869152 -12.177909 -39.655308 71.889381 -41.723763 38.775200 4.122774 -31.298727 12.013082 -10.090010 -49.502693 -85.784683 37.629017 32.535011 -8.521182 -8.806244 -8.625143 19.117031 -14.601372 11.946044 -85.789795 -37.638901 -32.536064 -8.513785 8.801977 8.622513 19.116936 14.597339 -11.948896 
0.000000 5.996777 27.997833 -94.004440 0.000000 0.000000 -5.565454 -0.061039 -0.050537 10.596223 -0.135641 -0.449842 17.515284 0.000000 0.000000 -3.923852 0.000000 0.000000 3.048229 -1.654357 -11.892436 39.656837 -71.894226 -41.727772 -37.971138 -4.096696 -31.231129 -12.298252 9.821620 -49.379002 -3.125780 1.672848 -11.875325 -39.655308 71.889381 -41.723763 37.974098 4.080742 -31.241898 12.284393 -9.772933 -49.397472 -85.560760 37.403671 32.620491 -9.051950 -9.069562 -8.536922 19.117031 -14.601372 11.946044 -85.565331 -37.413113 -32.621555 -9.045347 9.065340 8.534256 19.116936 14.597339 -11.948896 
